<?xml version="1.0" encoding="UTF-8"?>
<svg xmlns="http://www.w3.org/2000/svg" xmlns:xlink="http://www.w3.org/1999/xlink" width="375pt" height="374.999991pt" viewBox="0 0 375 374.999991" version="1.2">
<defs>
<clipPath id="clip1">
  <path d="M 37.5 9.722656 L 337.5 9.722656 L 337.5 365.175781 L 37.5 365.175781 Z M 37.5 9.722656 "/>
</clipPath>
</defs>
<g id="surface1">
<path style=" stroke:none;fill-rule:nonzero;fill:rgb(64.309692%,63.919067%,63.919067%);fill-opacity:1;" d="M 331.941406 298.527344 C 331.941406 314.078125 319.71875 326.296875 304.164062 326.296875 L 104.167969 326.296875 C 88.613281 326.296875 76.390625 314.078125 76.390625 298.527344 L 76.390625 43.046875 C 76.390625 27.496094 88.613281 15.277344 104.167969 15.277344 L 304.164062 15.277344 C 319.71875 15.277344 331.941406 27.496094 331.941406 43.046875 Z M 331.941406 298.527344 "/>
<path style=" stroke:none;fill-rule:nonzero;fill:rgb(40.779114%,62.748718%,86.669922%);fill-opacity:1;" d="M 298.609375 165.234375 L 298.609375 331.851562 C 298.609375 347.402344 286.386719 359.621094 270.832031 359.621094 L 70.835938 359.621094 C 63.058594 359.621094 56.390625 356.289062 51.390625 351.289062 C 46.390625 346.292969 43.058594 339.628906 43.058594 331.851562 L 43.058594 76.371094 C 43.058594 60.820312 55.28125 48.601562 70.835938 48.601562 L 193.054688 48.601562 C 203.609375 48.601562 213.609375 53.042969 220.832031 60.820312 L 224.722656 65.261719 L 287.496094 136.351562 C 290.832031 140.238281 293.609375 144.128906 295.273438 148.570312 C 297.496094 153.570312 298.609375 159.679688 298.609375 165.234375 Z M 298.609375 165.234375 "/>
<path style=" stroke:none;fill-rule:nonzero;fill:rgb(30.589294%,47.059631%,65.098572%);fill-opacity:1;" d="M 295.273438 148.570312 L 209.722656 148.570312 C 205.277344 148.570312 200.832031 146.90625 198.054688 143.574219 C 194.722656 140.796875 193.054688 136.351562 193.054688 131.910156 L 193.054688 48.601562 C 203.609375 48.601562 213.609375 53.042969 220.832031 60.820312 L 224.722656 65.261719 L 287.496094 136.351562 C 290.832031 139.683594 293.609375 144.128906 295.273438 148.570312 Z M 295.273438 148.570312 "/>
<path style=" stroke:none;fill-rule:nonzero;fill:rgb(0%,0%,0%);fill-opacity:1;" d="M 265.277344 154.125 L 209.722656 154.125 C 197.5 154.125 187.5 144.128906 187.5 131.910156 L 187.5 76.371094 C 187.5 73.039062 189.722656 70.816406 193.054688 70.816406 C 196.386719 70.816406 198.609375 73.039062 198.609375 76.371094 L 198.609375 131.910156 C 198.609375 138.019531 203.609375 143.015625 209.722656 143.015625 L 265.277344 143.015625 C 268.609375 143.015625 270.832031 145.238281 270.832031 148.570312 C 270.832031 151.902344 268.609375 154.125 265.277344 154.125 Z M 265.277344 154.125 "/>
<g clip-path="url(#clip1)" clip-rule="nonzero">
<path style=" stroke:none;fill-rule:nonzero;fill:rgb(0%,0%,0%);fill-opacity:1;" d="M 304.164062 9.722656 L 104.167969 9.722656 C 85.835938 9.722656 70.835938 24.71875 70.835938 43.046875 C 52.503906 43.046875 37.503906 58.042969 37.503906 76.371094 L 37.503906 331.851562 C 37.503906 350.179688 52.503906 365.175781 70.835938 365.175781 L 270.832031 365.175781 C 289.164062 365.175781 304.164062 350.179688 304.164062 331.851562 C 322.496094 331.851562 337.496094 316.855469 337.496094 298.527344 L 337.496094 43.046875 C 337.496094 24.71875 322.496094 9.722656 304.164062 9.722656 Z M 293.054688 331.851562 C 293.054688 344.070312 283.054688 354.066406 270.832031 354.066406 L 70.835938 354.066406 C 58.613281 354.066406 48.613281 344.070312 48.613281 331.851562 L 48.613281 76.371094 C 48.613281 64.152344 58.613281 54.152344 70.835938 54.152344 L 193.054688 54.152344 C 201.945312 54.152344 210.832031 58.042969 216.386719 64.707031 L 283.054688 139.683594 C 289.164062 146.90625 292.496094 155.792969 292.496094 165.234375 L 292.496094 331.851562 Z M 326.386719 298.527344 C 326.386719 310.746094 316.386719 320.742188 304.164062 320.742188 L 304.164062 165.234375 C 304.164062 153.015625 299.71875 141.351562 291.941406 132.464844 L 287.496094 136.351562 L 291.386719 132.464844 L 224.722656 57.484375 C 216.945312 48.042969 205.277344 43.046875 193.054688 43.046875 L 81.945312 43.046875 C 81.945312 30.828125 91.945312 20.832031 104.167969 20.832031 L 304.164062 20.832031 C 316.386719 20.832031 326.386719 30.828125 326.386719 43.046875 Z M 326.386719 298.527344 "/>
</g>
<path style=" stroke:none;fill-rule:nonzero;fill:rgb(0%,0%,0%);fill-opacity:1;" d="M 254.164062 204.109375 L 81.945312 204.109375 C 78.613281 204.109375 76.390625 201.890625 76.390625 198.558594 C 76.390625 195.222656 78.613281 193.003906 81.945312 193.003906 L 254.164062 193.003906 C 257.5 193.003906 259.71875 195.222656 259.71875 198.558594 C 259.71875 201.890625 257.5 204.109375 254.164062 204.109375 Z M 254.164062 204.109375 "/>
<path style=" stroke:none;fill-rule:nonzero;fill:rgb(0%,0%,0%);fill-opacity:1;" d="M 254.164062 248.542969 L 81.945312 248.542969 C 78.613281 248.542969 76.390625 246.320312 76.390625 242.988281 C 76.390625 239.65625 78.613281 237.433594 81.945312 237.433594 L 254.164062 237.433594 C 257.5 237.433594 259.71875 239.65625 259.71875 242.988281 C 259.71875 246.320312 257.5 248.542969 254.164062 248.542969 Z M 254.164062 248.542969 "/>
<path style=" stroke:none;fill-rule:nonzero;fill:rgb(0%,0%,0%);fill-opacity:1;" d="M 254.164062 292.972656 L 81.945312 292.972656 C 78.613281 292.972656 76.390625 290.753906 76.390625 287.421875 C 76.390625 284.085938 78.613281 281.867188 81.945312 281.867188 L 254.164062 281.867188 C 257.5 281.867188 259.71875 284.085938 259.71875 287.421875 C 259.71875 290.753906 257.5 292.972656 254.164062 292.972656 Z M 254.164062 292.972656 "/>
</g>
</svg>
