<?xml version="1.0" encoding="UTF-8"?>
<svg xmlns="http://www.w3.org/2000/svg" xmlns:xlink="http://www.w3.org/1999/xlink" width="375pt" height="374.999991pt" viewBox="0 0 375 374.999991" version="1.2">
<defs>
<clipPath id="clip1">
  <path d="M 37.5 7.589844 L 337.5 7.589844 L 337.5 367.589844 L 37.5 367.589844 Z M 37.5 7.589844 "/>
</clipPath>
</defs>
<g id="surface1">
<path style=" stroke:none;fill-rule:nonzero;fill:rgb(42.349243%,66.668701%,88.238525%);fill-opacity:1;" d="M 295.445312 37.605469 L 295.445312 313.75 C 295.445312 327.023438 284.714844 337.761719 271.457031 337.761719 L 67.5625 337.761719 C 54.304688 337.761719 43.574219 327.023438 43.574219 313.75 L 43.574219 85.628906 L 103.542969 85.628906 C 110.125 85.628906 115.539062 80.238281 115.539062 73.625 L 115.539062 13.59375 L 271.457031 13.59375 C 284.714844 13.59375 295.445312 24.332031 295.445312 37.605469 "/>
<path style=" stroke:none;fill-rule:nonzero;fill:rgb(34.118652%,59.609985%,84.709167%);fill-opacity:1;" d="M 295.445312 241.710938 L 295.445312 313.75 C 295.445312 327.023438 284.714844 337.761719 271.457031 337.761719 L 187.5 337.761719 L 187.5 265.722656 C 187.5 252.453125 198.230469 241.710938 211.488281 241.710938 L 295.445312 241.710938 "/>
<path style=" stroke:none;fill-rule:nonzero;fill:rgb(34.118652%,59.609985%,84.709167%);fill-opacity:1;" d="M 103.542969 25.597656 L 103.542969 85.628906 C 103.542969 92.242188 98.132812 97.636719 91.550781 97.636719 L 43.574219 97.636719 L 43.574219 85.628906 L 103.542969 25.597656 "/>
<path style=" stroke:none;fill-rule:nonzero;fill:rgb(25.489807%,49.01886%,78.42865%);fill-opacity:1;" d="M 115.539062 13.59375 L 115.539062 73.625 C 115.539062 80.238281 110.125 85.628906 103.542969 85.628906 L 43.574219 85.628906 L 115.539062 13.59375 "/>
<path style=" stroke:none;fill-rule:nonzero;fill:rgb(96.469116%,54.899597%,7.058716%);fill-opacity:1;" d="M 331.425781 253.71875 L 331.425781 337.761719 C 331.425781 351.035156 320.695312 361.773438 307.4375 361.773438 L 223.480469 361.773438 C 210.222656 361.773438 199.492188 351.035156 199.492188 337.761719 L 199.492188 253.71875 C 199.492188 240.445312 210.222656 229.707031 223.480469 229.707031 L 307.4375 229.707031 C 320.695312 229.707031 331.425781 240.445312 331.425781 253.71875 "/>
<path style=" stroke:none;fill-rule:nonzero;fill:rgb(92.549133%,47.839355%,8.628845%);fill-opacity:1;" d="M 236.480469 310.675781 C 234.164062 313.023438 231.09375 314.242188 228.050781 314.242188 C 224.910156 314.242188 221.863281 313.023438 219.523438 310.675781 C 214.835938 305.941406 214.835938 298.390625 219.523438 293.699219 L 245.007812 268.1875 C 249.695312 263.496094 257.238281 263.496094 261.921875 268.1875 L 287.410156 293.699219 C 289.75 296.042969 290.875 299.09375 290.875 302.164062 C 290.875 305.238281 289.75 308.355469 287.410156 310.675781 C 282.722656 315.367188 275.109375 315.367188 270.449219 310.675781 L 265.460938 305.707031 L 265.460938 337.761719 C 265.460938 341.066406 264.148438 344.070312 261.921875 346.226562 C 259.765625 348.453125 256.769531 349.769531 253.464844 349.769531 C 246.882812 349.769531 241.472656 344.375 241.472656 337.761719 L 241.472656 305.707031 L 236.480469 310.675781 "/>
<path style=" stroke:none;fill-rule:nonzero;fill:rgb(91.369629%,91.758728%,91.758728%);fill-opacity:1;" d="M 248.476562 298.671875 C 246.15625 301.015625 243.089844 302.234375 240.042969 302.234375 C 236.902344 302.234375 233.859375 301.015625 231.515625 298.671875 C 226.832031 293.933594 226.832031 286.382812 231.515625 281.695312 L 257.003906 256.179688 C 261.6875 251.492188 269.230469 251.492188 273.914062 256.179688 L 299.402344 281.695312 C 301.746094 284.039062 302.871094 287.085938 302.871094 290.160156 C 302.871094 293.230469 301.746094 296.351562 299.402344 298.671875 C 294.71875 303.359375 287.105469 303.359375 282.441406 298.671875 L 277.453125 293.699219 L 277.453125 325.753906 C 277.453125 329.0625 276.140625 332.0625 273.914062 334.222656 C 271.761719 336.449219 268.761719 337.761719 265.460938 337.761719 C 258.875 337.761719 253.464844 332.367188 253.464844 325.753906 L 253.464844 293.699219 L 248.476562 298.671875 "/>
<path style=" stroke:none;fill-rule:nonzero;fill:rgb(6.269836%,5.879211%,5.099487%);fill-opacity:1;" d="M 295.140625 294.402344 C 292.796875 296.75 289 296.75 286.660156 294.402344 L 281.691406 289.433594 C 279.984375 287.71875 277.40625 287.203125 275.15625 288.140625 C 272.910156 289.058594 271.457031 291.261719 271.457031 293.675781 L 271.457031 325.753906 C 271.457031 329.0625 268.761719 331.757812 265.460938 331.757812 C 262.15625 331.757812 259.460938 329.0625 259.460938 325.753906 L 259.460938 293.675781 C 259.460938 291.261719 258.011719 289.058594 255.761719 288.140625 C 255.011719 287.8125 254.238281 287.671875 253.464844 287.671875 C 251.894531 287.671875 250.375 288.28125 249.226562 289.433594 L 244.257812 294.402344 C 241.917969 296.75 238.121094 296.75 235.78125 294.402344 C 233.4375 292.082031 233.4375 288.257812 235.78125 285.914062 L 261.21875 260.449219 C 263.5625 258.101562 267.355469 258.101562 269.699219 260.449219 L 295.140625 285.914062 C 297.480469 288.257812 297.480469 292.082031 295.140625 294.402344 Z M 278.179688 251.960938 C 271.175781 244.949219 259.765625 244.925781 252.738281 251.960938 L 227.300781 277.425781 C 220.296875 284.460938 220.296875 295.878906 227.300781 302.890625 C 232.734375 308.355469 240.839844 309.574219 247.46875 306.550781 L 247.46875 325.753906 C 247.46875 335.699219 255.527344 343.765625 265.460938 343.765625 C 275.390625 343.765625 283.449219 335.699219 283.449219 325.753906 L 283.449219 306.550781 C 290.078125 309.574219 298.160156 308.355469 303.621094 302.890625 C 310.625 295.878906 310.625 284.460938 303.621094 277.425781 L 278.179688 251.960938 "/>
<g clip-path="url(#clip1)" clip-rule="nonzero">
<path style=" stroke:none;fill-rule:nonzero;fill:rgb(6.269836%,5.879211%,5.099487%);fill-opacity:1;" d="M 325.429688 337.761719 C 325.429688 347.703125 317.371094 355.769531 307.4375 355.769531 L 223.480469 355.769531 C 213.550781 355.769531 205.492188 347.703125 205.492188 337.761719 L 205.492188 253.71875 C 205.492188 243.777344 213.550781 235.707031 223.480469 235.707031 L 307.4375 235.707031 C 317.371094 235.707031 325.429688 243.777344 325.429688 253.71875 Z M 193.496094 253.71875 L 193.496094 331.757812 L 67.5625 331.757812 C 57.628906 331.757812 49.570312 323.691406 49.570312 313.75 L 49.570312 91.632812 L 103.542969 91.632812 C 113.476562 91.632812 121.535156 83.566406 121.535156 73.625 L 121.535156 19.597656 L 271.457031 19.597656 C 281.386719 19.597656 289.445312 27.664062 289.445312 37.605469 L 289.445312 223.703125 L 223.480469 223.703125 C 206.941406 223.703125 193.496094 237.164062 193.496094 253.71875 Z M 109.539062 28.085938 L 109.539062 73.625 C 109.539062 76.929688 106.847656 79.628906 103.542969 79.628906 L 58.050781 79.628906 Z M 307.4375 223.703125 L 301.441406 223.703125 L 301.441406 37.605469 C 301.441406 21.050781 287.996094 7.589844 271.457031 7.589844 L 115.539062 7.589844 C 113.945312 7.589844 112.421875 8.222656 111.296875 9.347656 L 39.335938 81.386719 C 38.210938 82.511719 37.578125 84.035156 37.578125 85.628906 L 37.578125 313.75 C 37.578125 330.304688 51.023438 343.765625 67.5625 343.765625 L 194.105469 343.765625 C 196.894531 357.460938 209.003906 367.777344 223.480469 367.777344 L 307.4375 367.777344 C 323.976562 367.777344 337.421875 354.316406 337.421875 337.761719 L 337.421875 253.71875 C 337.421875 237.164062 323.976562 223.703125 307.4375 223.703125 "/>
</g>
<path style=" stroke:none;fill-rule:nonzero;fill:rgb(6.269836%,5.879211%,5.099487%);fill-opacity:1;" d="M 265.460938 79.628906 L 145.523438 79.628906 L 145.523438 91.632812 L 265.460938 91.632812 L 265.460938 79.628906 "/>
<path style=" stroke:none;fill-rule:nonzero;fill:rgb(6.269836%,5.879211%,5.099487%);fill-opacity:1;" d="M 169.507812 55.613281 L 145.523438 55.613281 L 145.523438 67.621094 L 169.507812 67.621094 L 169.507812 55.613281 "/>
<path style=" stroke:none;fill-rule:nonzero;fill:rgb(6.269836%,5.879211%,5.099487%);fill-opacity:1;" d="M 265.460938 55.613281 L 181.503906 55.613281 L 181.503906 67.621094 L 265.460938 67.621094 L 265.460938 55.613281 "/>
<path style=" stroke:none;fill-rule:nonzero;fill:rgb(6.269836%,5.879211%,5.099487%);fill-opacity:1;" d="M 157.515625 115.644531 L 73.558594 115.644531 L 73.558594 127.652344 L 157.515625 127.652344 L 157.515625 115.644531 "/>
<path style=" stroke:none;fill-rule:nonzero;fill:rgb(6.269836%,5.879211%,5.099487%);fill-opacity:1;" d="M 169.507812 127.652344 L 265.460938 127.652344 L 265.460938 115.644531 L 169.507812 115.644531 L 169.507812 127.652344 "/>
<path style=" stroke:none;fill-rule:nonzero;fill:rgb(6.269836%,5.879211%,5.099487%);fill-opacity:1;" d="M 193.496094 139.660156 L 73.558594 139.660156 L 73.558594 151.664062 L 193.496094 151.664062 L 193.496094 139.660156 "/>
<path style=" stroke:none;fill-rule:nonzero;fill:rgb(6.269836%,5.879211%,5.099487%);fill-opacity:1;" d="M 205.492188 151.664062 L 265.460938 151.664062 L 265.460938 139.660156 L 205.492188 139.660156 L 205.492188 151.664062 "/>
<path style=" stroke:none;fill-rule:nonzero;fill:rgb(6.269836%,5.879211%,5.099487%);fill-opacity:1;" d="M 265.460938 163.671875 L 73.558594 163.671875 L 73.558594 175.675781 L 265.460938 175.675781 L 265.460938 163.671875 "/>
<path style=" stroke:none;fill-rule:nonzero;fill:rgb(6.269836%,5.879211%,5.099487%);fill-opacity:1;" d="M 73.558594 223.703125 L 193.496094 223.703125 L 193.496094 211.695312 L 73.558594 211.695312 L 73.558594 223.703125 "/>
<path style=" stroke:none;fill-rule:nonzero;fill:rgb(6.269836%,5.879211%,5.099487%);fill-opacity:1;" d="M 73.558594 247.714844 L 181.503906 247.714844 L 181.503906 235.707031 L 73.558594 235.707031 L 73.558594 247.714844 "/>
<path style=" stroke:none;fill-rule:nonzero;fill:rgb(6.269836%,5.879211%,5.099487%);fill-opacity:1;" d="M 157.515625 187.683594 L 73.558594 187.683594 L 73.558594 199.691406 L 157.515625 199.691406 L 157.515625 187.683594 "/>
<path style=" stroke:none;fill-rule:nonzero;fill:rgb(6.269836%,5.879211%,5.099487%);fill-opacity:1;" d="M 169.507812 199.691406 L 205.492188 199.691406 L 205.492188 187.683594 L 169.507812 187.683594 L 169.507812 199.691406 "/>
<path style=" stroke:none;fill-rule:nonzero;fill:rgb(6.269836%,5.879211%,5.099487%);fill-opacity:1;" d="M 265.460938 187.683594 L 217.484375 187.683594 L 217.484375 199.691406 L 265.460938 199.691406 L 265.460938 187.683594 "/>
<path style=" stroke:none;fill-rule:nonzero;fill:rgb(6.269836%,5.879211%,5.099487%);fill-opacity:1;" d="M 73.558594 271.726562 L 181.503906 271.726562 L 181.503906 259.722656 L 73.558594 259.722656 L 73.558594 271.726562 "/>
<path style=" stroke:none;fill-rule:nonzero;fill:rgb(6.269836%,5.879211%,5.099487%);fill-opacity:1;" d="M 73.558594 295.738281 L 121.535156 295.738281 L 121.535156 283.734375 L 73.558594 283.734375 L 73.558594 295.738281 "/>
<path style=" stroke:none;fill-rule:nonzero;fill:rgb(6.269836%,5.879211%,5.099487%);fill-opacity:1;" d="M 133.527344 295.738281 L 145.523438 295.738281 L 145.523438 283.734375 L 133.527344 283.734375 L 133.527344 295.738281 "/>
<path style=" stroke:none;fill-rule:nonzero;fill:rgb(6.269836%,5.879211%,5.099487%);fill-opacity:1;" d="M 157.515625 295.738281 L 181.503906 295.738281 L 181.503906 283.734375 L 157.515625 283.734375 L 157.515625 295.738281 "/>
</g>
</svg>
